<?xml version="1.0" encoding="UTF-8"?><svg id="Ebene_2" xmlns="http://www.w3.org/2000/svg" width="8.951" height="8.352" viewBox="0 0 8.951 8.352"><defs><style>.cls-1{stroke-width:0px;}</style></defs><g id="Ebene_1-2"><path class="cls-1" d="m.063,3.339c-.006.024-.011.048-.016.073-.003.025-.007.051-.008.076-.279,2.375.974,4.616,3.436,4.845,2.126.195,4.707-1.152,5.342-3.387C9.491,2.568,7.532.726,5.482.182,2.995-.48.668.687.063,3.339Zm7.96,1.974c-.757,1.56-2.669,2.487-4.288,2.405-2.22-.113-3.355-2.1-3.075-4.231,1.11-5.188,9.418-2.401,7.364,1.826Z"/></g></svg>