<?xml version="1.0"?>
<svg width="1000" height="1000" xmlns="http://www.w3.org/2000/svg" xmlns:svg="http://www.w3.org/2000/svg" data-name="Layer 1">
 <defs>
  <style>.cls-1{fill:#fff;}</style>
  <style class="darkreader darkreader--sync"/>
 </defs>
 <g class="layer">
  <title>Layer 1</title>
  <path class="cls-1" d="m295.42,6c-53.2,2.51 -89.53,11 -121.29,23.48c-32.87,12.81 -60.73,30 -88.45,57.82s-44.79,55.7 -57.51,88.62c-12.31,31.83 -20.65,68.19 -23,121.42s-2.87,70.34 -2.61,206.12s0.86,152.8 3.44,206.14c2.54,53.19 11,89.51 23.48,121.28c12.83,32.87 30,60.72 57.83,88.45s55.69,44.76 88.69,57.5c31.8,12.29 68.17,20.67 121.39,23s70.35,2.87 206.09,2.61s152.83,-0.86 206.16,-3.39s89.46,-11.05 121.24,-23.47c32.87,-12.86 60.74,-30 88.45,-57.84s44.77,-55.74 57.48,-88.68c12.32,-31.8 20.69,-68.17 23,-121.35c2.33,-53.37 2.88,-70.41 2.62,-206.17s-0.87,-152.78 -3.4,-206.1s-11,-89.53 -23.47,-121.32c-12.85,-32.87 -30,-60.7 -57.82,-88.45s-55.74,-44.8 -88.67,-57.48c-31.82,-12.31 -68.17,-20.7 -121.39,-23s-70.35,-2.89 -206.14,-2.63s-152.79,0.84 -206.12,3.44m5.84,903.88c-48.75,-2.12 -75.22,-10.22 -92.86,-17c-23.36,-9 -40,-19.88 -57.58,-37.29s-28.38,-34.11 -37.5,-57.42c-6.85,-17.64 -15.1,-44.08 -17.38,-92.83c-2.48,-52.69 -3,-68.51 -3.29,-202s0.22,-149.29 2.53,-202c2.08,-48.71 10.23,-75.21 17,-92.84c9,-23.39 19.84,-40 37.29,-57.57s34.1,-28.39 57.43,-37.51c17.62,-6.88 44.06,-15.06 92.79,-17.38c52.73,-2.5 68.53,-3 202,-3.29s149.31,0.21 202.06,2.53c48.71,2.12 75.22,10.19 92.83,17c23.37,9 40,19.81 57.57,37.29s28.4,34.07 37.52,57.45c6.89,17.57 15.07,44 17.37,92.76c2.51,52.73 3.08,68.54 3.32,202s-0.23,149.31 -2.54,202c-2.13,48.75 -10.21,75.23 -17,92.89c-9,23.35 -19.85,40 -37.31,57.56s-34.09,28.38 -57.43,37.5c-17.6,6.87 -44.07,15.07 -92.76,17.39c-52.73,2.48 -68.53,3 -202.05,3.29s-149.27,-0.25 -202,-2.53m407.6,-674.61a60,0 0 0 0 -700,0" id="svg_1" transform="translate(-2.5 -2.5)"/>
 </g>
</svg>