<?xml version="1.0" encoding="UTF-8"?>
<svg id="Ebene_2" xmlns="http://www.w3.org/2000/svg" width="301.865" height="295.418"
    viewBox="0 0 301.865 295.418">
    <defs>
        <style>
            .cls-1 { 
                fill:#fff; 
                stroke:#d890be; 
                stroke-miterlimit:10;
            }
            .cls-2 { fill:#bdccd4; }
            .cls-2, .cls-3 { stroke-width:0px; }
            .cls-3 { fill:#d890be; }
        </style>
    </defs>
    <g id="Ebene_1-2">
        <path class="cls-3"
            d="M156.649,169.457c-10.71,1.59-22.21-5-27.49-13.64-7.23-11.84-.98-24.68,10.99-30.74,30.65-12.53,45.51,40.1,16.5,44.38Z" />
        <path class="cls-3"
            d="M191.859,150.907c-.7-7.92-6.12-15.02-9.92-21.88-5.18-9.39-10.72-16.58-21.44-20.54-11.55-3.45-24.85-4.61-35.05,2.98-7.63,5.68-11.61,14.8-14.31,23.39-3.38,10.78-3.98,22,3.89,31.21,6.18,7.23,15.75,11.26,25.02,13.61,11.28,2.86,20.96,1.81,31.16-3.55,9.9-5.2,21.73-13.14,20.65-25.22ZM161.319,172.257c-13.74,4.59-29.77-3.97-36.25-15.62-7.48-13.49-.33-27.84,12.89-34.75.13-.09.28-.16.42-.23.15-.06.29-.12.44-.17,15.79-6.22,30,1.67,35.33,16.82,4.41,12.48,1.81,29.06-12.83,33.95Z" />
        <path class="cls-3"
            d="M210.699,129.957c-5.65-2.14-11.76-3.03-17.48-5.02-10.46-3.66-13.99-13.9-22.56-19.48-1.23-.8-2.56-1.51-4.04-2.09l-.03-.01c-2.97-1.01-5.72-1.97-8.4-2.79-.55,1.03-1.08,2.02-1.57,2.95,1.64.37,3.26.8,4.87,1.27.1.02.2.05.31.09l.06.02c.09.04.19.07.28.11,2.72,1.03,5.13,2.23,7.29,3.6,7.51,4.77,12.06,11.54,16.71,19.83,4.76,8.5,11.63,17.76,9.62,27.91-1.23,6.19-5.26,11.18-10.26,15.24-3.46,2.82-7.38,5.2-11.16,7.24-.46.25-.92.49-1.37.73-5.82,3.04-11.48,4.8-17.32,5.32-2.87.26-5.78.23-8.77-.09-.09,3.58-.18,7.15-.27,10.73,3.22,1.5,6.32,2.8,9.43,3.39,4.88.93,9.81.12,15.33-4.4,3.19-2.61,6-5.52,8.96-8.3,2.14-2.03,4.36-3.98,6.86-5.7.92-.63,1.82-1.23,2.7-1.82,5.57-3.69,10.52-6.81,13.7-13.09,2.86-5.63,6.26-10.69,9.64-16.06,4.88-7.77,8.44-15.4-2.53-19.58Z" />
        <path class="cls-3"
            d="M105.119,145.957c-.15,4.6.54,8.87,1.98,12.78,4.35,11.87,15.65,20.43,31.66,24.55,2.79.72,5.49,1.22,8.12,1.5-.09,3.58-.18,7.15-.27,10.73-2.43-1.13-4.93-2.38-7.56-3.52-5.72-2.46-11.48-2.96-17.55-4.01-15.98-2.79-16.17-12.48-17.37-25.11-.13-1.38-.38-2.71-.72-4.03-1.08-4.13-3.05-7.98-4.92-11.8-3-6.16-5.73-12.24-4.01-19.3,1.46-5.95,3.41-12.25,5.87-17.87,4.43-10.11,11.32-12.45,22.26-12.2,5.08.11,10.1.41,15.18.1,7.8-.47,13.9.78,20.4,2.79-.55,1.03-1.08,2.02-1.57,2.95-10.48-2.38-21.43-2.4-31.01,3.23-9.95,5.85-15.01,16.62-18.26,26.88-1.37,4.33-2.1,8.45-2.23,12.33Z" />
        <path class="cls-3"
            d="M156.159,203.157c-3.26-.6-6.42-1.96-9.65-3.52-3.93-1.88-7.97-4.04-12.47-5.48-13.03-4.17-28.29-1.56-32.46-17.32-1.55-5.85-.9-12-2.02-17.89-.3-1.61-.74-3.2-1.39-4.76-.95-2.26-2.21-4.39-3.47-6.5-4.11.71-8.23,1.44-12.29,2.19.43.96.84,1.92,1.23,2.89.83,2.1,1.45,4.29,1.93,6.53,2.4,11.01,1.7,23.29,8.7,32.46,6.24,8.18,15.99,9.85,25.67,12.08,7.78,1.78,14.75,4.36,22.03,7.5,1.41.61,2.81,1.19,4.2,1.73,3.45,1.35,6.88,2.44,10.35,2.95-.13-4.29-.25-8.57-.36-12.86Z" />
        <path class="cls-3"
            d="M221.169,168.637c-5.01,10.94-13.54,17.5-22.49,24.46-2.5,1.95-5.03,3.93-7.53,6.05-.75.63-1.49,1.27-2.22,1.93-5.48,4.88-10.96,10.16-17.91,13.12-5.07,2.16-9.83,2.51-14.5,1.82-.13-4.29-.25-8.57-.36-12.86,4.48.83,9.16.23,14.53-3.25,4.58-2.96,8.14-7.06,12.04-10.8,1.55-1.49,3.16-2.93,4.9-4.21,1.38-1.02,2.83-1.96,4.29-2.88,4.28-2.71,8.69-5.26,11.91-9.16,4.32-5.22,6.6-12.05,10.4-17.7,3.14-4.68,7.19-10.04,8.03-15.69,1.61-10.8-10.37-13.34-18.97-15.66-8.7-2.33-14.5-4.32-20.04-11.43-3.47-4.44-6.62-7.98-11.16-10.61-1.22-.71-2.54-1.36-3.99-1.93-.07-.03-.14-.07-.22-.09l-.13-.04c-2.52-.87-5.05-1.86-7.6-2.8-4.66-1.71-9.4-3.26-14.32-3.56-7.14-.42-14.46.77-21.7.56-11.91-.33-20.65.98-26.24,11.89-4.44,8.67-10.78,22.99-7.76,32.75,1.02,3.26,2.8,6.19,4.57,9.14-4.11.71-8.23,1.44-12.29,2.19-2.35-5.32-5.14-10.61-6-16.33-1.1-7.49,2.75-15.33,5.25-22.32,3.08-8.53,6.64-19.11,14.97-24.26,7.33-4.53,16.76-4.37,25.2-4.69,7.22-.27,14.65-1.84,21.82-1.76,7.76.09,15.32,2.51,22.66,5.01,2,.68,3.98,1.36,5.94,2.01h.01c1.57.58,3.02,1.26,4.38,2.03,11.07,6.14,15.88,17.42,26.83,23.87,9.05,5.33,23.73,6.83,30.26,15.28,8.37,10.87-7.92,29.76-12.56,39.92Z" />
        <path class="cls-3"
            d="M237.419,100.357c-6.44-2.73-14.32-2.69-21.17-4.02-16.56-3.22-23.2-18.39-38.5-24.13-12.26-3.7-23.62-3.8-36.28-3.48-13.08.34-23.03.64-35.36,5.38-8.99,3.47-19.33,5.61-26.67,12.01-8.82,7.72-11.48,20.81-14.91,31.27-5.59,17.05-1.49,33.81-4.72,51.03-1.7,9.04-4.01,18.31,2.19,26.33,5.63,7.29,14.23,12.18,21.59,17.71,8.96,6.75,16.8,7.49,27.95,8.27,8.26.57,14.96,2.78,22.44,6.13,12.68,5.67,23.42,9.2,36.12,1.31,6.26-3.88,11.87-8.59,18.84-11.36,7.55-3.02,16.13-3.78,23.25-7.73,10.8-5.99,12.61-17.79,15.57-28.2,3.14-10.98,10.51-20.88,12.66-32.01,1.36-7.05,1.09-14.26,2.53-21.4,1.88-9.27,5.84-22.28-5.53-27.11ZM239.339,139.647c-1.63,8.36-6.88,15.87-10.92,23.3-3.67,6.78-5.67,14-10.98,19.87-6.44,7.11-15.3,11.94-22.59,18.2-5.91,5.07-11.36,10.81-18.27,14.71-18.18,10.27-32.27-.96-49.84-6.24-16.4-4.92-33.46-5.57-39.96-23.29-3.1-8.44-2.67-17.56-4.89-26.18-1.96-7.62-6.39-14.43-8.51-22-3.84-13.65,4.31-31.33,11.16-43.17,8.07-13.96,20.56-15.7,36.15-16.33,8.66-.34,17.59-2.4,26.22-1.64,9.19.81,17.9,4.18,26.54,7.02l.1.03c.08.03.16.07.24.1,9.01,3.38,14.99,8.77,21.1,15.81,7.2,8.32,13.83,12.14,24.19,16.3,11.54,4.63,22.94,9.79,20.26,23.51Z" />

        <path class="cls-2"
            d="M222.189,232.037c-.02-.03-4.71-7.85-11.06-18.38-1.79.81-3.67,1.5-5.64,2.13,7.72,8.84,13.77,15.57,15.7,17.67.37-.42.73-.86,1.07-1.31-.04-.07-.07-.11-.07-.11ZM36.869,159.087c-.12.09.01.33.01.33,0,0,.21.33.51.65.25.26,1.66.16,1.66.16,0,0,7.54-.13,18.15-.34.05-.5.1-1,.13-1.5.09-1.24.13-2.48.14-3.72-11.45,2.29-19.47,4.02-20.04,4.19-.25.08-.43.14-.56.23Z" />

        <path class="cls-3"
            d="M262.329,126.427c-.41,11.02-3.32,21.28-2.34,32.43,1.38,15.81,1.16,27.27-11.9,38.7-7.76,6.79-13.73,12.83-18.52,21.85-2.26,4.26-4.29,8.85-7.31,12.74-.04-.07-.07-.11-.07-.11-.02-.03-4.71-7.85-11.06-18.38,5.71-2.55,10.42-6.14,13.83-12,5.3-9.12,6-20.03,10.01-29.66,2.66-6.39,6.63-12.31,8.65-18.95,1.49-4.93,1.13-9.74,1.53-14.79,1.12-14.47,11.92-36.12-8.54-42.17-9.38-2.77-21.03-1.5-29.5-6.64-10.43-6.34-15.71-16.05-27.68-20.69-.1-.05-.21-.09-.32-.13l-.06-.02c-.12-.05-.24-.08-.34-.1-11.25-3.35-21.95-4.12-33.68-3.72-10.88.35-22.43-.91-32.87,2.67-17.36,5.94-36.02,11.11-44.13,28.22-4.34,9.19-7.89,19.69-10.02,29.54-2.15,9.93-.41,19.6-.54,29.45-11.45,2.29-19.47,4.02-20.04,4.19-.25.08-.43.14-.56.23-.12.09.01.33.01.33,0,0,.21.33.51.65.25.26,1.66.16,1.66.16,0,0,7.54-.13,18.15-.34-.89,8.49-4.13,16.84-3.28,25.44.75,7.39,5.23,12.84,10.79,17.79,6.76,6,15.11,12.76,23,17.3,7.96,4.6,17.77,3.4,26.63,4.35,11.48,1.22,20.54,8.16,31.26,11.12,1.24.35,2.5.64,3.79.86,2.7.46,5.26.54,7.72.29,5.91-.6,11.25-3.08,16.54-6.54,9.83-6.42,18.43-10.74,29.81-14.08.69-.2,1.36-.41,2.03-.63,7.72,8.84,13.77,15.57,15.7,17.67-.74.85-1.55,1.66-2.42,2.41-6.19,5.33-14.48,6.49-22.4,7.67-8.86,1.32-16.25,2.74-23.87,7.37-4.92,2.99-9.44,6.71-14.75,9.08-.12.06-.25.11-.38.17-3.84,1.65-8.13,2.09-12.43,2.29-2.89.15-5.78.2-8.55.43-14.68,1.25-27.77,2.36-38.25-9.36-7.23-8.08-12.78-15.59-21.78-22.01-11.6-8.27-19.94-17.4-28.81-28.11-9.62-11.63-15.92-21.35-14.19-36.57,1.52-13.21,2.47-26.54,7.96-38.84,2.4-5.36,5.03-10.6,6.72-16.22,2.16-7.15,2.74-14.74,5.48-21.74,2.38-6.06,6.81-11.12,9.6-17.03,2.61-5.55,4.48-11.55,7.86-16.76,8.69-13.39,21.95-6.63,34.96-4.26,11.5,2.11,21.77-2.54,33.3-3.1,6.51-.32,13.04.04,19.55-.31,9.38-.5,17.89-1.51,27.07,1.02,11.98,4.46,18.58,14.74,29.59,20.11,7.54,3.69,17.04,2.75,25.22,3.3,6.05.41,12.72.77,16.15,6.28,3.08,4.93,2.72,11.73,2.77,17.22.09,10,3.11,20.14,2.74,29.93Z" />
        <path class="cls-3"
            d="M287.539,141.857c-3.49-24.79-10.4-48.23-21.53-70.87-4.5-9.13-9.98-15.47-19.74-19.73-4.92-2.15-10.11-3.7-14.97-5.98-12.77-6-23.31-14.71-36.89-19.48l-.02-.01c-18-6.09-33.04-11.89-52.59-9.27-15.19,2.03-28.37,5.84-41.83,12.83-13.19,6.82-28.25,11.66-39.68,21.14-11.3,9.38-19.77,23.11-27.28,35.34-7.18,11.69-11.57,24.62-18.2,36.59-4.65,8.42-7.47,15.68-6.31,25.3.65,5.47,2.19,10.82,3.61,16.15,6.55,24.45,17.24,51.18,34.48,70.9,9.34,10.68,18.79,21.5,31.84,28.18,13.59,6.95,29.57,12.03,44.74,14.39,13.1,2.03,26.83,3.24,40.06,4.17,14.65,1.03,26.82-3.5,39.81-9.56,12.93-6.05,21.85-13.27,32.15-22.63,9.29-8.44,20.27-15.44,28.04-25.31,9.33-11.86,12.44-27.19,17.65-40.9,5.26-13.86,8.73-26.47,6.66-41.25ZM263.019,184.847c-4.31,11.62-16.45,17.11-23.92,26.5-7.82,9.81-10.04,23.27-21.66,30.17-11.26,6.69-25.32,4.46-37.14,9.54-10.12,4.35-17.75,13.36-29.24,14.79-11.88,1.47-28.02,3.58-39.88.72-12.21-2.94-18.11-13.69-25.63-22.3-9.49-10.85-23.61-16.86-32.85-28.22-7.94-9.75-18.48-20-22.35-32.04-3.65-11.31.42-23.13,1.34-34.55,1.26-15.8,10.14-28.44,13.76-43.68,1.63-6.81,2.54-13.92,5.72-20.29,3.21-6.43,7.46-12.08,10.35-18.75,3.43-7.89,7.34-19.05,16.86-21.99,8.91-2.76,19.34,1.81,28.03,3.44,12.28,2.29,25.04-3.05,37.6-3.24,14-.2,28.96-2.7,42.62.91.02,0,.03.01.05,0,.16.05.31.09.47.13.14.06.29.1.43.17,14.82,5.72,23.63,20.74,39.94,22.37,9.25.93,22.71-1.25,30.16,5.48,7.67,6.91,5.67,20.01,5.94,28.92.19,6.69,2.36,12.88,2.71,19.46.42,7.82-1.81,15.44-2.53,23.18-1.23,12.96,3.93,26.6-.78,39.28Z" />
        <path class="cls-3"
            d="M301.519,131.017c-1.08-8.46-4.22-16.42-7.53-24.83-.78-2-1.57-3.99-2.33-6-.94-2.5-1.83-5-2.71-7.52-2.86-8.06-5.55-15.7-10.06-22.4-2.38-3.55-4.46-7.38-6.46-11.09-3.57-6.57-6.93-12.79-11.75-17.29-3.81-3.57-9.9-5.45-16.35-7.45-5.36-1.65-10.91-3.37-15.84-6.25-1.35-.8-2.69-1.59-4.03-2.38-8.37-4.97-16.28-9.65-25.54-12.65-8.65-2.8-17.36-3.56-26.56-4.37-2.17-.19-4.35-.38-6.53-.6-5.84-.59-11.37-2.52-16.72-4.39-6.33-2.21-12.3-4.3-17.54-3.69-5.73.66-11.38,3.91-17.37,7.35-4.55,2.61-9.25,5.31-14.35,7.05-10.17,3.49-20.92,7.38-30.62,13.27-3.08,1.87-6.28,3.61-9.37,5.29-7.16,3.89-13.92,7.57-19.21,12.68-6.63,6.39-11.72,14.34-17.1,22.75-.85,1.33-1.69,2.66-2.56,3.98-1.73,2.67-3.16,5.7-4.55,9.56-1.13,3.15-2.07,6.42-3.06,9.88-1.03,3.58-2.08,7.28-3.41,10.98-.96,2.68-1.97,5.31-2.98,7.89-.95,2.46-1.89,4.89-2.76,7.31-1.49,4.16-3.29,9.68-3.92,15.41-.89,8.06.3,15.9,1.55,24.2.39,2.54.78,5.07,1.1,7.64,1.55,12.14,3.81,21.66,7.3,30.89,1.87,4.92,2.64,10.14,3.38,15.2.97,6.49,1.87,12.62,4.93,17.16,3.75,5.58,9.5,10.24,15.58,15.16,3.13,2.54,6.38,5.17,9.35,7.96,6.05,5.66,13.53,9.87,21.44,14.32,2.22,1.25,4.45,2.51,6.66,3.8,1.6.93,3.19,1.89,4.79,2.84,8.25,4.92,16.05,9.57,25.03,12.48,2.76.9,5.51,1.85,8.26,2.81,8.56,2.97,16.64,5.79,24.72,6.6,3.2.32,6.45.4,9.73.34,4.83-.1,9.71-.54,14.56-1.08,2.11-.23,4.22-.48,6.31-.73l3.81-.44c11.36-1.32,22.57-4.79,32.99-8.36,4.06-1.39,8.31-2.48,12.41-3.53,7.56-1.94,14.7-3.76,20.48-7.27,7.2-4.38,13.72-10.9,20.04-17.2,1.81-1.81,3.62-3.61,5.42-5.35,4.74-4.58,8-10.66,11.45-17.11,1.9-3.56,3.87-7.25,6.17-10.79,1.48-2.29,3.02-4.54,4.58-6.81,4.79-7,9.32-13.61,12.06-21.24,2.58-7.2,3.11-14.7,3.67-22.63.21-3.03.43-6.16.77-9.27.36-3.24.84-6.43,1.3-9.52,1.19-7.87,2.3-15.3,1.37-22.56ZM291.319,164.087c-2.94,14.66-9.56,29.63-14.89,43.66-5,13.18-13.03,23.11-24.03,32.29-10.83,9.04-20.91,20.13-32.82,27.82-10.48,6.76-23.65,12.46-35.84,15.75-8.47,2.27-16.86,2-25.3,1.18-4.65-.45-9.32-1.07-14.02-1.51-.62-.06-1.23-.12-1.85-.17-16.47-1.38-31.48-3.82-47.1-9.16-28.22-9.65-49.93-28.92-64.05-54.11-13.01-23.22-26.35-49.4-27.25-76.28-.48-14.23,9.51-25.1,14.78-37.74,5.82-13.94,13.19-26.18,21.92-38.68,7.64-10.92,15.93-20.27,27.95-27,12.99-7.28,27.37-14.11,41.09-20.04,12.15-5.25,26.73-7.46,39.98-8.21,16.65-.95,30.39,5.08,45.74,10.27l.05.02c17.43,6.11,31.82,17.42,48.9,24.27,14,5.6,21.07,13.85,26.93,27.02,6.59,14.83,12.19,28.52,15.36,44.4,3.04,15.22,7.56,30.67,4.45,46.22Z" />
            
        <path class="cls-1"
            d="M172.249,87.537c-1.96-.65-3.94-1.33-5.94-2.01,11.75-21.61,26.46-48.15,26.46-48.15,0,0,.62-1.28.97-1.37.43-.1.82-.11.82-.11,0,0,.27,0,.28.15.03.16-.02.35-.07.6-.26,1.08-8.79,27.36-18.13,52.92-1.36-.77-2.81-1.45-4.38-2.03h-.01Z" />
        <path class="cls-1"
            d="M158.439,284.787c.08,3.01.17,6.03.25,9.04-4.85.54-9.73.98-14.56,1.08.1-3.88.2-7.76.29-11.63.01-.08.01-.16.01-.24l.06-2.42c.15-6.06.3-12.12.45-18.17,4.3-.2,8.59-.64,12.43-2.29.13-.06.26-.11.38-.17.23,8.27.46,16.53.69,24.8Z" />
        <path class="cls-1"
            d="M98.489,147.047c1.87,3.82,3.84,7.67,4.92,11.8-1.25.03-2.54.06-3.85.1-4.44.12-9.18.23-13.99.35-9.91.23-20.08.43-28.37.59-10.61.21-18.15.34-18.15.34,0,0-1.41.1-1.66-.16-.3-.32-.51-.65-.51-.65,0,0-.13-.24-.01-.33.13-.09.31-.15.56-.23.57-.17,8.59-1.9,20.04-4.19,7.27-1.45,15.93-3.13,24.94-4.79,4.06-.75,8.18-1.48,12.29-2.19,1.27-.22,2.53-.43,3.79-.64Z" />
        <path class="cls-1"
            d="M191.919,182.017c-1.46.92-2.91,1.86-4.29,2.88-1.74,1.28-3.35,2.72-4.9,4.21-.8-.97-1.6-1.94-2.4-2.9-2.05-2.49-4.06-4.96-5.99-7.38-2.39-2.97-4.66-5.85-6.76-8.59-10.89-14.19-11.12-16-11.12-16l-1.34-3.38c-.06.02-.13.04-.2.07-.08.02-.15.04-.22.06.31,11.3.63,22.59.95,33.89.13,4.68.26,9.35.39,14.03.04,1.42.08,2.83.12,4.25.11,4.29.23,8.57.36,12.86.2,7.01.39,14.01.59,21.02-2.46.25-5.02.17-7.72-.29-1.29-.22-2.55-.51-3.79-.86.19-7.61.38-15.22.57-22.82.11-4.48.23-8.96.34-13.43.03-1.37.07-2.75.1-4.12.09-3.58.18-7.15.27-10.73.27-11.28.56-22.56.84-33.84-1.94-.56-3.49-2.02-4.18-3.9l-.77.59-13.52,8.15s-3.48,2-5.19,2.19c-2.12.23-8.54.49-16.96.76-1.44-3.91-2.13-8.18-1.98-12.78,5.15-.83,10.12-1.56,14.72-2.17,17.72-2.34,19.41-1.63,19.41-1.63l3.89.58v-1.48c0-3.5,2.84-6.33,6.33-6.33h2.52l-.19-1.36-.29-15.8s.01-4.01.71-5.59c.59-1.34,2.17-4.44,4.4-8.66.49-.93,1.02-1.92,1.57-2.95.62-1.16,1.28-2.39,1.96-3.66,2.55.94,5.08,1.93,7.6,2.8l.13.04c.08.02.15.06.22.09,1.45.57,2.77,1.22,3.99,1.93-.48,1.24-.95,2.48-1.43,3.69-.41,1.07-.82,2.11-1.23,3.15-.96,2.42-1.91,4.76-2.83,7-6.84,16.53-8.28,17.64-8.28,17.64l-2.03,2.55c1.87,1.1,3.12,3.13,3.12,5.46v3.6c0,1.02-.25,1.99-.67,2.84l2.72.67,11.8,7.71s3.46,2.01,4.48,3.41c1.13,1.54,4,6.04,7.76,12.1,1.36,2.19,2.83,4.58,4.39,7.1.66,1.09,1.34,2.2,2.03,3.33Z" />
        <path class="cls-1"
            d="M222.889,233.557c-.12.42-.31.76-.31.76,0,0-.14.24-.28.18-.14-.06-.28-.19-.48-.37-.07-.07-.29-.3-.63-.67-1.93-2.1-7.98-8.83-15.7-17.67-4.39-5.02-9.32-10.72-14.34-16.64,2.5-2.12,5.03-4.1,7.53-6.05,4.31,7.1,8.67,14.31,12.45,20.56,6.35,10.53,11.04,18.35,11.06,18.38,0,0,.03.04.07.11.19.29.71,1.12.63,1.41Z" />
    </g>
</svg>