<?xml version="1.0" encoding="UTF-8"?>
<svg id="Ebene_2" xmlns="http://www.w3.org/2000/svg" width="53.198" height="53.526" viewBox="0 0 53.198 53.526">
  <defs>
    <style>.cls-1{fill:#fff;stroke-width:0px;}</style>
  </defs>
  <g id="Ebene_1-2">
    <path class="cls-1" d="m0,53.504c.241-.338,9.167-10.962,15.314-17.215,3.447-3.507,3.931-3.64,3.931-3.64l1.54-.872.396.511-.243.951-1.553,4.055s-.415,1.021-.755,1.353c-1.67,1.631-18.047,14.878-18.047,14.878l-.582-.021Z"/>
    <path class="cls-1" d="m13.294,0c.177.375,5.073,13.359,7.519,21.779,1.371,4.722,1.251,5.21,1.251,5.21l.006,1.77-.64.095-.711-.678-2.776-3.339s-.687-.862-.81-1.32C16.529,21.262,12.991.497,12.991.497l.303-.497Z"/>
    <path class="cls-1" d="m53.198,38.775c-.413-.039-14.077-2.458-22.565-4.654-4.761-1.232-5.118-1.584-5.118-1.584l-1.525-.898.245-.598.946-.265,4.288-.682s1.092-.151,1.549-.022c2.247.630,21.909,8.190,21.909,8.190l.272.514Z"/>
    <rect class="cls-1" x="20.18" y="28.462" width="4.193" height="4.193" rx="2.097" ry="2.097" transform="translate(-8.485 8.563) rotate(-18.342)"/>
  </g>
</svg>