<?xml version="1.0" encoding="UTF-8"?><svg id="Ebene_2" xmlns="http://www.w3.org/2000/svg" width="24.844" height="25.36" viewBox="0 0 24.844 25.36"><defs><style>.cls-1{stroke-width:0px;}</style></defs><g id="Ebene_1-2"><path class="cls-1" d="m3.764,7.378c-.881,1.074-1.415,2.441-2.152,3.618-1.325,2.12-2.223,3.931-1.106,6.26.948,1.977,2.552,4.653,4.705,5.378,1.194.404,2.495.432,3.68.861,1.341.485,2.51,1.366,3.907,1.718,2.933.74,4.559-1.459,6.692-3.185,2.286-1.848,5.045-2.698,5.328-6.032.108-1.267-.159-2.507-.295-3.748-.17-1.529-.008-3.138-.368-4.633-.297-1.234-1.072-2.15-1.637-3.248-.62-1.206-1.139-2.58-2.098-3.551-1.573-1.594-3.287-.551-4.942.557-1.486.995-2.592,1.528-4.343,1.729-1.484.171-2.738.477-3.998,1.364-.012.007-.024.015-.035.023l-.012.01c-1.158.888-2.391,1.735-3.327,2.878Zm3.7-2.391h.001c2.003-1.42,4.179-.818,6.247-1.791,1.523-.717,3.047-2.525,4.756-2.625,2.194-.126,3.223,3.737,4.148,5.269,1.359,2.251,1.044,4.633,1.381,7.198.151,1.165.355,2.368.118,3.555-.351,1.768-1.587,2.689-3.003,3.587-1.073.68-2.044,1.37-2.983,2.238-1.169,1.08-2.271,2.218-3.918,2.305-2.222.117-4.031-1.646-6.121-2.115-1.062-.239-2.211-.304-3.197-.781-1.091-.53-1.781-1.748-2.48-2.711-.851-1.177-1.929-2.605-1.859-4.172.063-1.38.936-2.614,1.656-3.759.617-.981,1.08-2.106,1.739-3.047.907-1.297,2.282-2.208,3.513-3.152Z"/></g></svg>