<?xml version="1.0" encoding="UTF-8"?><svg id="Ebene_2" xmlns="http://www.w3.org/2000/svg" width="47.52" height="49.113" viewBox="0 0 47.52 49.113"><defs><style>.cls-1{stroke-width:0px;}</style></defs><g id="Ebene_1-2"><path class="cls-1" d="m3.937,11.636c-1.191,1.977-2.302,4.286-2.74,6.545-.494,2.551-.922,5.285-1.15,7.863-.213,2.386.319,4.492,1.137,6.659.938,2.479,1.974,4.737,3.405,6.937,1.298,1.996,1.88,4.497,3.97,5.822,3.947,2.505,9.013,3.156,13.622,3.564,5,.441,9.894-.787,14.044-3.893,2.299-1.719,4.121-3.635,5.933-5.864,1.528-1.879,3.29-3.527,4.106-5.862.723-2.072,1.194-4.522,1.252-6.689.063-2.463-.542-4.998-.778-7.438-.239-2.479-.879-4.605-2.28-6.614-1.492-2.141-2.992-4.559-4.809-6.417-1.928-1.972-4.589-2.836-7.072-3.891-2.591-1.102-5.106-1.639-7.88-2.146-2.466-.451-4.343-.243-6.519,1.217-2.657,1.782-5.691,2.74-8.276,4.642l-.008.006c-2.25,1.695-4.461,3.076-5.957,5.559Zm6.357-5.025l.004-.003c2.015-1.482,4.298-2.141,6.411-3.387.802-.474,1.534-1.069,2.326-1.563,1.567-.983,3.015-1.149,4.766-.9,4.342.62,8.385,1.925,12.285,3.855,2.326,1.152,3.796,2.886,5.27,4.998,1.459,2.092,3.354,4.042,4.142,6.544.656,2.082.585,4.345.886,6.505.335,2.397.497,4.385.098,6.834-.403,2.458-.945,4.65-2.529,6.652-1.431,1.808-2.949,3.661-4.524,5.342-1.826,1.946-4.122,3.743-6.451,5.013-2.239,1.219-4.718,1.516-7.166,1.81-4.52.542-9.407-.543-13.558-1.999-.904-.318-1.822-.621-2.672-1.064-1.496-.776-2.262-1.893-3.013-3.386-1.07-2.125-2.497-4.022-3.47-6.199-1.02-2.276-2.162-4.838-2.4-7.38-.242-2.57.54-5.206.853-7.768.317-2.618,1.061-4.883,2.258-7.262,1.541-3.063,3.847-4.654,6.486-6.641Z"/></g></svg>