<?xml version="1.0" encoding="UTF-8"?><svg id="Ebene_2" xmlns="http://www.w3.org/2000/svg" width="38.726" height="40.369" viewBox="0 0 38.726 40.369"><defs><style>.cls-1{stroke-width:0px;}</style></defs><g id="Ebene_1-2"><path class="cls-1" d="m10.103,6.869c-.02.017-.039.034-.059.051,0,.002-.003.004-.005.006-1.712,1.481-2.732,3.687-3.97,5.558-1.11,1.68-1.557,3.851-2.969,5.27-1,1.003-2.547,1.971-2.988,3.399-.471,1.525.654,3.052,1.389,4.218.62.985.985,2.059,1.544,3.064.557.996,1.415,1.759,2.17,2.59,1.69,1.856,2.56,4.173,4.537,5.769,1.428,1.153,2.625,2.758,4.451,3.298,1.944.576,4.252.106,6.26-.064,2.338-.197,4.409-1.523,6.702-1.797,1.82-.218,3.775-.027,5.268-1.378,1.449-1.311,2.627-3.638,3.507-5.343.849-1.649.346-3.473.684-5.206.396-2.024,1.962-3.682,2.093-5.776.137-2.161-1.444-3.672-2.037-5.593-.567-1.837-.197-3.939-1.345-5.561-1.252-1.767-3.524-2.318-5.129-3.651-.959-.795-1.766-1.778-2.838-2.429-.904-.548-1.918-.82-2.82-1.398-1.205-.77-2.757-2.218-4.364-1.828-1.564.377-2.491,2.356-3.45,3.498-1.689,2.011-4.472,1.82-6.568,3.264-.022.013-.041.028-.062.042Zm5.695-1.603c1.169-.666,1.904-2.007,2.716-3.04.6-.763,1.25-1.614,2.29-1.57.931.039,1.798.699,2.529,1.189,1.332.892,2.946,1.407,4.209,2.341,1.422,1.05,2.516,2.361,4.079,3.24,2.217,1.246,3.715,2.311,4.047,5.071.198,1.64.458,2.977,1.219,4.426.483.921,1.082,1.836,1.203,2.916.146,1.302-.45,2.503-1.009,3.658-.625,1.292-1.106,2.398-1.181,3.825-.051.944.039,1.901-.143,2.838-.213,1.097-.988,2.054-1.535,3.022-1.16,2.056-2.197,3.888-4.693,4.216-1.723.227-3.219.283-4.882.894-2.142.788-4.104,1.068-6.323,1.274-2.408.222-4.264.177-6.121-1.427-1.612-1.394-3.289-2.724-4.422-4.563-.493-.801-.949-1.622-1.54-2.354-.751-.932-1.702-1.695-2.382-2.69-.587-.862-.857-1.905-1.387-2.809-.498-.847-1.123-1.636-1.507-2.553-.987-2.361,1.104-3.504,2.595-5.012,1.318-1.333,1.631-3.111,2.598-4.687.546-.892,1.183-1.723,1.726-2.616.781-1.287,1.416-2.504,2.58-3.49,1.672-1.183,3.629-1.129,5.335-2.1Z"/></g></svg>