<?xml version="1.0" encoding="UTF-8"?><svg id="Ebene_2" xmlns="http://www.w3.org/2000/svg" width="14.034" height="13.427" viewBox="0 0 14.034 13.427"><defs><style>.cls-1{stroke-width:0px;}</style></defs><g id="Ebene_1-2"><path class="cls-1" d="m2.993,1.201C1.455,2.459.149,4.072.011,6.127c-.124,1.845.844,3.488,1.908,4.846,2.581,3.295,6.205,3.138,9.41.329,1.54-1.35,2.361-2.854,2.596-4.865.203-1.723.245-3.831-1.013-5.113C11.751.141,9.904.214,8.351.076c-1.955-.172-3.557-.138-5.27,1.06-.013.008-.026.018-.04.027l-.007.006c-.015.011-.028.022-.04.033Zm5.056-.516c1.251.117,2.68.041,3.792.664,1.695.949,1.679,3.232,1.472,5.013-.212,1.833-.948,3.21-2.346,4.444-1.147,1.014-2.546,1.917-4.06,2.081-1.932.21-3.361-.883-4.483-2.305-.893-1.134-1.741-2.485-1.803-4.007-.083-2.037,1.272-3.692,2.773-4.909,1.491-1.061,2.944-1.144,4.655-.982Z"/></g></svg>